<?xml version="1.0" encoding="UTF-8" standalone="no"?>
<!-- Created with Inkscape (http://www.inkscape.org/) -->

<svg
   xmlns:dc="http://purl.org/dc/elements/1.1/"
   xmlns:cc="http://creativecommons.org/ns#"
   xmlns:rdf="http://www.w3.org/1999/02/22-rdf-syntax-ns#"
   xmlns:svg="http://www.w3.org/2000/svg"
   xmlns="http://www.w3.org/2000/svg"
   xmlns:sodipodi="http://sodipodi.sourceforge.net/DTD/sodipodi-0.dtd"
   xmlns:inkscape="http://www.inkscape.org/namespaces/inkscape"
   version="1.1"
   id="svg2"
   xml:space="preserve"
   width="525.01331"
   height="566.93335"
   viewBox="0 0 525.01331 566.93335"
   sodipodi:docname="escoteiros.svg"
   inkscape:version="0.92.5 (2060ec1f9f, 2020-04-08)"><metadata
     id="metadata8"><rdf:RDF><cc:Work
         rdf:about=""><dc:format>image/svg+xml</dc:format><dc:type
           rdf:resource="http://purl.org/dc/dcmitype/StillImage" /><dc:title></dc:title></cc:Work></rdf:RDF></metadata><defs
     id="defs6" /><sodipodi:namedview
     pagecolor="#ffffff"
     bordercolor="#666666"
     borderopacity="1"
     objecttolerance="10"
     gridtolerance="10"
     guidetolerance="10"
     inkscape:pageopacity="0"
     inkscape:pageshadow="2"
     inkscape:window-width="1366"
     inkscape:window-height="731"
     id="namedview4"
     showgrid="false"
     inkscape:zoom="0.41627468"
     inkscape:cx="262.50665"
     inkscape:cy="283.46667"
     inkscape:window-x="1280"
     inkscape:window-y="0"
     inkscape:window-maximized="1"
     inkscape:current-layer="g10" /><g
     id="g10"
     inkscape:groupmode="layer"
     inkscape:label="ink_ext_XXXXXX"
     transform="matrix(1.3333333,0,0,-1.3333333,0,566.93333)"><path
       inkscape:connector-curvature="0"
       id="path14"
       style="fill:#ffffff;fill-opacity:1;fill-rule:nonzero;stroke:none;stroke-width:0.1"
       d="M 0,0 H 393.761 V 425.197 H 0 Z" /><path
       inkscape:connector-curvature="0"
       id="path16"
       style="fill:#d9a37a;fill-opacity:1;fill-rule:nonzero;stroke:none;stroke-width:0.1"
       d="m 343.12,316.806 c -0.051,-4.94 -3.812,-8.904 -8.398,-8.857 -4.586,0.047 -8.264,4.089 -8.213,9.03 0.051,4.939 3.814,8.904 8.4,8.857 4.586,-0.049 8.262,-4.091 8.211,-9.03" /><path
       inkscape:connector-curvature="0"
       id="path18"
       style="fill:#c59376;fill-opacity:1;fill-rule:nonzero;stroke:none;stroke-width:0.1"
       d="m 340.409,316.821 c -0.043,-4.134 -3.187,-7.453 -7.025,-7.413 -3.84,0.04 -6.916,3.422 -6.875,7.556 0.045,4.134 3.193,7.452 7.029,7.412 3.838,-0.04 6.914,-3.423 6.871,-7.555" /><path
       inkscape:connector-curvature="0"
       id="path20"
       style="fill:#d9a37a;fill-opacity:1;fill-rule:nonzero;stroke:none;stroke-width:0.1"
       d="m 256.103,315.82 c -0.051,-4.939 -3.807,-8.906 -8.397,-8.859 -4.586,0.049 -8.266,4.093 -8.213,9.031 0.053,4.939 3.809,8.905 8.397,8.858 4.589,-0.048 8.265,-4.091 8.213,-9.03" /><path
       inkscape:connector-curvature="0"
       id="path22"
       style="fill:#c59376;fill-opacity:1;fill-rule:nonzero;stroke:none;stroke-width:0.1"
       d="m 255.026,315.839 c -0.039,-3.832 -2.953,-6.91 -6.513,-6.874 -3.563,0.038 -6.414,3.176 -6.375,7.008 0.041,3.832 2.957,6.91 6.515,6.873 3.563,-0.037 6.414,-3.175 6.373,-7.007" /><path
       inkscape:connector-curvature="0"
       id="path24"
       style="fill:#ce9a79;fill-opacity:1;fill-rule:nonzero;stroke:none;stroke-width:0.1"
       d="m 284.798,287.987 v -10.494 h 10.619 v 10.494 h -10.619" /><path
       inkscape:connector-curvature="0"
       id="path26"
       style="fill:#d9a37a;fill-opacity:1;fill-rule:nonzero;stroke:none;stroke-width:0.1"
       d="m 336.362,325.809 c -0.252,-24.169 -20.713,-43.55 -45.701,-43.29 -24.986,0.259 -45.041,20.06 -44.791,44.229 0.25,24.168 20.711,43.549 45.701,43.29 24.989,-0.259 45.041,-20.061 44.791,-44.229" /><path
       inkscape:connector-curvature="0"
       id="path28"
       style="fill:#ce9a79;fill-opacity:1;fill-rule:nonzero;stroke:none;stroke-width:0.1"
       d="m 281.712,278.213 -22.211,-7.275 31.32,-23.563 27.803,26.301 -20.687,4.537 h -16.225" /><path
       inkscape:connector-curvature="0"
       id="path30"
       style="fill:#351f17;fill-opacity:1;fill-rule:nonzero;stroke:none;stroke-width:0.1"
       d="m 246.376,323.041 c 0.486,-0.329 1.295,-0.036 1.412,0.558 0.947,4.775 1.791,9.611 3.023,14.342 0.657,2.5 0.983,4.947 1.116,7.518 0.328,6.208 7.74,8.057 12.263,4.38 3.483,-2.831 4.356,0.45 7.434,2.649 5.18,3.696 9.281,6.96 15.936,6.89 12.343,-0.128 28.39,-2.288 37.144,-11.846 4.504,-4.917 6.145,-11.971 7.834,-18.229 0.49,-1.827 1.053,-5.648 3.451,-5.887 0.481,-0.048 1.02,0.459 0.969,0.948 -0.93,8.923 3.516,18.197 -0.596,26.864 -2.222,4.677 -4.201,9.517 -7.369,13.665 -3.974,5.202 -11.697,8.751 -9.207,16.419 0.285,0.871 -0.971,1.701 -1.596,0.946 -1.998,-2.423 -4.125,-3.569 -7.255,-3.777 -1.856,-0.124 -5.764,-0.008 -6.004,2.688 -0.207,2.25 0.935,4.324 0.547,6.549 -0.137,0.789 -1.09,0.833 -1.6,0.44 -4.217,-3.236 -7.139,-6.122 -12.799,-5.815 -5.207,0.282 -10.494,0.301 -15.627,-0.639 -7.014,-1.282 -12.6,-5.076 -15.414,-11.297 -2.09,1.655 -5.041,2.115 -7.684,0.841 -5.148,-2.489 -7.757,-8.315 -8.972,-13.806 -4.022,-18.167 2.994,-34.401 2.994,-34.401" /><path
       inkscape:connector-curvature="0"
       id="path32"
       style="fill:#ce9a79;fill-opacity:1;fill-rule:nonzero;stroke:none;stroke-width:0.1"
       d="m 333.091,220.314 -2.252,28.549 -11.365,-2.252 2.297,-26.297 h 11.32" /><path
       inkscape:connector-curvature="0"
       id="path34"
       style="fill:#83913b;fill-opacity:1;fill-rule:nonzero;stroke:none;stroke-width:0.1"
       d="m 268.372,259.025 1.625,-38.711 h 44.383 l 1.141,37.833 1.582,-11.86 15.988,2.174 -6.031,19.696 c 0,0 -1.661,8.082 -22.235,9.373 l -15.039,-8.319 -15.314,7.552 c -18.639,-2.108 -20.014,-11.379 -20.014,-11.379 l -2.939,-17.326 15.966,-1.368 0.887,12.335" /><path
       inkscape:connector-curvature="0"
       id="path36"
       style="fill:#626b27;fill-opacity:1;fill-rule:nonzero;stroke:none;stroke-width:0.1"
       d="m 269.179,243.305 0.965,-22.991 h 1.416 l -3.188,38.711 1.137,-15.748 -0.33,0.028" /><path
       inkscape:connector-curvature="0"
       id="path38"
       style="fill:#626b27;fill-opacity:1;fill-rule:nonzero;stroke:none;stroke-width:0.1"
       d="m 256.478,261.971 c 0,0 1.38,9.271 20.015,11.379 l 15.317,-7.552 15.037,8.32 c 12.935,-0.812 18.39,-4.306 20.662,-6.791 l -0.311,1.01 c 0,0 -1.66,8.081 -22.232,9.373 l -15.035,-8.32 -15.319,7.553 c -18.636,-2.109 -20.017,-11.38 -20.017,-11.38 l -2.936,-17.324 2.455,-0.211 2.364,13.943" /><path
       inkscape:connector-curvature="0"
       id="path40"
       style="fill:#626b27;fill-opacity:1;fill-rule:nonzero;stroke:none;stroke-width:0.1"
       d="m 318.622,246.654 -3.101,11.493 1.775,-11.674 z" /><path
       inkscape:connector-curvature="0"
       id="path42"
       style="fill:#ce9a79;fill-opacity:1;fill-rule:nonzero;stroke:none;stroke-width:0.1"
       d="m 262.306,220.314 4.404,26.443 -13.012,1.114 -2.039,-27.557 h 10.647" /><path
       inkscape:connector-curvature="0"
       id="path44"
       style="fill:#626b27;fill-opacity:1;fill-rule:nonzero;stroke:none;stroke-width:0.1"
       d="m 284.478,280.518 -12.661,-2.988 17.969,-9.674 17.565,10.968 -12.254,1.694 -5.311,-12.662 -5.308,12.662" /><path
       inkscape:connector-curvature="0"
       id="path46"
       style="fill:#626b27;fill-opacity:1;fill-rule:nonzero;stroke:none;stroke-width:0.1"
       d="m 311.536,243.426 h -12.894 v 13.859 h 12.894 v -13.859" /><path
       inkscape:connector-curvature="0"
       id="path48"
       style="fill:#83913b;fill-opacity:1;fill-rule:nonzero;stroke:none;stroke-width:0.1"
       d="m 310.747,256.445 h -11.256 l 5.608,-5.61 z" /><path
       inkscape:connector-curvature="0"
       id="path50"
       style="fill:#f9a72b;fill-opacity:1;fill-rule:nonzero;stroke:none;stroke-width:0.1"
       d="m 303.106,261.174 c 0,-1.281 -1.002,-2.319 -2.23,-2.319 -1.234,0 -2.234,1.038 -2.234,2.319 0,1.281 1,2.319 2.234,2.319 1.228,0 2.23,-1.038 2.23,-2.319" /><path
       inkscape:connector-curvature="0"
       id="path52"
       style="fill:#fbc266;fill-opacity:1;fill-rule:nonzero;stroke:none;stroke-width:0.1"
       d="m 302.573,261.174 c 0,-0.975 -0.761,-1.765 -1.697,-1.765 -0.939,0 -1.699,0.79 -1.699,1.765 0,0.975 0.76,1.765 1.699,1.765 0.936,0 1.697,-0.79 1.697,-1.765" /><path
       inkscape:connector-curvature="0"
       id="path54"
       style="fill:#3bbec5;fill-opacity:1;fill-rule:nonzero;stroke:none;stroke-width:0.1"
       d="m 308.628,261.174 c 0,-1.281 -1,-2.319 -2.231,-2.319 -1.234,0 -2.23,1.038 -2.23,2.319 0,1.281 0.996,2.319 2.23,2.319 1.231,0 2.231,-1.038 2.231,-2.319" /><path
       inkscape:connector-curvature="0"
       id="path56"
       style="fill:#8ed9dd;fill-opacity:1;fill-rule:nonzero;stroke:none;stroke-width:0.1"
       d="m 308.155,261.174 c 0,-1.01 -0.789,-1.827 -1.758,-1.827 -0.972,0 -1.759,0.817 -1.759,1.827 0,1.009 0.787,1.827 1.759,1.827 0.969,0 1.758,-0.818 1.758,-1.827" /><path
       inkscape:connector-curvature="0"
       id="path58"
       style="fill:#80cc28;fill-opacity:1;fill-rule:nonzero;stroke:none;stroke-width:0.1"
       d="m 314.294,261.174 c 0,-1.281 -0.998,-2.319 -2.231,-2.319 -1.232,0 -2.234,1.038 -2.234,2.319 0,1.281 1.002,2.319 2.234,2.319 1.233,0 2.231,-1.038 2.231,-2.319" /><path
       inkscape:connector-curvature="0"
       id="path60"
       style="fill:#b3dd42;fill-opacity:1;fill-rule:nonzero;stroke:none;stroke-width:0.1"
       d="m 313.763,261.174 c 0,-0.975 -0.76,-1.765 -1.698,-1.765 -0.939,0 -1.699,0.79 -1.699,1.765 0,0.975 0.76,1.765 1.699,1.765 0.938,0 1.698,-0.79 1.698,-1.765" /><path
       inkscape:connector-curvature="0"
       id="path62"
       style="fill:#f9a72b;fill-opacity:1;fill-rule:nonzero;stroke:none;stroke-width:0.1"
       d="m 272.45,261.174 c 0,-1.281 -1,-2.319 -2.23,-2.319 -1.237,0 -2.235,1.038 -2.235,2.319 0,1.281 0.998,2.319 2.235,2.319 1.23,0 2.23,-1.038 2.23,-2.319" /><path
       inkscape:connector-curvature="0"
       id="path64"
       style="fill:#fbc266;fill-opacity:1;fill-rule:nonzero;stroke:none;stroke-width:0.1"
       d="m 271.919,261.174 c 0,-0.975 -0.762,-1.765 -1.699,-1.765 -0.94,0 -1.699,0.79 -1.699,1.765 0,0.975 0.759,1.765 1.699,1.765 0.937,0 1.699,-0.79 1.699,-1.765" /><path
       inkscape:connector-curvature="0"
       id="path66"
       style="fill:#d82930;fill-opacity:1;fill-rule:nonzero;stroke:none;stroke-width:0.1"
       d="m 277.97,261.174 c 0,-1.281 -0.996,-2.319 -2.231,-2.319 -1.23,0 -2.232,1.038 -2.232,2.319 0,1.281 1.002,2.319 2.232,2.319 1.235,0 2.231,-1.038 2.231,-2.319" /><path
       inkscape:connector-curvature="0"
       id="path68"
       style="fill:#8ed9dd;fill-opacity:1;fill-rule:nonzero;stroke:none;stroke-width:0.1"
       d="m 277.497,261.174 c 0,-1.01 -0.785,-1.827 -1.758,-1.827 -0.968,0 -1.756,0.817 -1.756,1.827 0,1.009 0.788,1.827 1.756,1.827 0.973,0 1.758,-0.818 1.758,-1.827" /><path
       inkscape:connector-curvature="0"
       id="path70"
       style="fill:#80cc28;fill-opacity:1;fill-rule:nonzero;stroke:none;stroke-width:0.1"
       d="m 283.642,261.174 c 0,-1.281 -1.002,-2.319 -2.235,-2.319 -1.234,0 -2.232,1.038 -2.232,2.319 0,1.281 0.998,2.319 2.232,2.319 1.233,0 2.235,-1.038 2.235,-2.319" /><path
       inkscape:connector-curvature="0"
       id="path72"
       style="fill:#b3dd42;fill-opacity:1;fill-rule:nonzero;stroke:none;stroke-width:0.1"
       d="m 283.104,261.174 c 0,-0.975 -0.757,-1.765 -1.697,-1.765 -0.939,0 -1.699,0.79 -1.699,1.765 0,0.975 0.76,1.765 1.699,1.765 0.94,0 1.697,-0.79 1.697,-1.765" /><path
       inkscape:connector-curvature="0"
       id="path74"
       style="fill:#bf1b2c;fill-opacity:1;fill-rule:nonzero;stroke:none;stroke-width:0.1"
       d="m 302.706,276.029 -2.119,-1.324 -10.801,-6.849 -6.769,3.898 -4.543,2.446 -0.446,-0.013 11.758,-10.782 12.92,12.624" /><path
       inkscape:connector-curvature="0"
       id="path76"
       style="fill:#bf1b2c;fill-opacity:1;fill-rule:nonzero;stroke:none;stroke-width:0.1"
       d="m 287.575,264.793 c 0,0 -11.101,0.919 0.875,-42.736 0,0 7.442,29.084 3.061,42.737 l -3.936,-10e-4" /><path
       inkscape:connector-curvature="0"
       id="path78"
       style="fill:#bf1b2c;fill-opacity:1;fill-rule:nonzero;stroke:none;stroke-width:0.1"
       d="m 289.737,262.883 c 0,0 -0.468,-10.882 11.346,-18.302 0,0 4.801,9.902 -7.279,20.213 l -4.067,-1.911" /><path
       inkscape:connector-curvature="0"
       id="path80"
       style="fill:#a21a29;fill-opacity:1;fill-rule:nonzero;stroke:none;stroke-width:0.1"
       d="m 294.075,266.12 c 0,-1.805 -1.644,-3.269 -3.674,-3.269 -2.031,0 -3.679,1.464 -3.679,3.269 0,1.804 1.648,3.268 3.679,3.268 2.03,0 3.674,-1.464 3.674,-3.268" /><path
       inkscape:connector-curvature="0"
       id="path82"
       style="fill:#a21a29;fill-opacity:1;fill-rule:nonzero;stroke:none;stroke-width:0.1"
       d="m 290.491,263.683 -0.705,-0.343 c 0,0 -0.463,-11.153 11.254,-18.759 0,0 0.111,0.24 0.256,0.68 -10.889,7.353 -10.818,17.768 -10.805,18.422" /><path
       inkscape:connector-curvature="0"
       id="path84"
       style="fill:#73652a;fill-opacity:1;fill-rule:nonzero;stroke:none;stroke-width:0.1"
       d="m 328.489,373.953 c -10.969,32.602 -36.617,30.402 -36.617,30.402 -39.98,0.031 -44.076,-30.544 -44.076,-30.544 l -29.852,-14.356 c 0,0 -22.967,-10.354 27.924,-10.354 0,0 114.022,3.815 113.547,10.446 0,0 6.787,0.814 -30.926,14.406" /><path
       inkscape:connector-curvature="0"
       id="path86"
       style="fill:#5c4e21;fill-opacity:1;fill-rule:nonzero;stroke:none;stroke-width:0.1"
       d="m 224.692,357.3 29.856,14.355 c 0,0 4.092,30.576 44.074,30.544 0,0 2.875,0.24 7.102,-0.65 -7.627,3.355 -13.856,2.83 -13.856,2.83 -39.98,0.03 -44.074,-30.545 -44.074,-30.545 l -29.856,-14.356 c 0,0 -13.332,-6.013 2.85,-8.873 -4.332,2.979 3.904,6.695 3.904,6.695" /><path
       inkscape:connector-curvature="0"
       id="path88"
       style="fill:#351f17;fill-opacity:1;fill-rule:nonzero;stroke:none;stroke-width:0.1"
       d="m 247.796,373.811 c 0,0 8.879,-3.593 79.611,2.281 l 8.959,-5.138 c 0,0 -63.541,-11.236 -99.582,-2.44 l 11.012,5.297" /><path
       inkscape:connector-curvature="0"
       id="path90"
       style="fill:#5c4e21;fill-opacity:1;fill-rule:nonzero;stroke:none;stroke-width:0.1"
       d="m 358.089,361.929 c -12.651,-5.847 -112.221,-9.179 -112.221,-9.179 -21.549,0 -29.853,1.856 -32.269,3.996 -2.655,-3.058 -0.58,-7.372 32.269,-7.372 0,0 114.022,3.816 113.547,10.446 0,0 1.697,0.204 -1.326,2.109" /><path
       inkscape:connector-curvature="0"
       id="path92"
       style="fill:#9f926c;fill-opacity:1;fill-rule:nonzero;stroke:none;stroke-width:0.1"
       d="m 242.488,339.24 c -0.232,0.014 -0.35,0.023 -0.35,0.023 v 9.838 l 0.097,0.005 c -0.205,-3.501 -0.07,-6.831 0.253,-9.866" /><path
       inkscape:connector-curvature="0"
       id="path94"
       style="fill:#8c6440;fill-opacity:1;fill-rule:nonzero;stroke:none;stroke-width:0.1"
       d="m 260.856,338.748 c -3.763,0 -7.069,0.055 -9.813,0.129 0.503,2.178 0.768,4.332 0.884,6.582 0.085,1.605 0.643,2.919 1.502,3.921 2.929,0.114 6.591,0.262 10.78,0.444 0.955,-0.772 1.713,-1.083 2.374,-1.083 0.877,0 1.584,0.547 2.355,1.292 14.06,0.638 32.442,1.593 48.962,2.839 2.549,-1.453 4.857,-3.213 6.804,-5.34 0.789,-0.861 1.491,-1.788 2.12,-2.766 -24.915,-4.987 -49.707,-6.019 -65.968,-6.018" /><path
       inkscape:connector-curvature="0"
       id="path96"
       style="fill:#25160f;fill-opacity:1;fill-rule:nonzero;stroke:none;stroke-width:0.1"
       d="m 251.043,338.877 c -4.56,0.124 -7.573,0.3 -8.555,0.363 -0.323,3.035 -0.458,6.365 -0.253,9.866 l 0.196,0.012 c 1.107,-0.012 2.251,-0.017 3.437,-0.017 0,0 2.816,0.094 7.561,0.279 -0.859,-1.002 -1.417,-2.316 -1.502,-3.921 -0.116,-2.25 -0.381,-4.404 -0.884,-6.582 m 75.781,5.889 c -0.629,0.978 -1.331,1.905 -2.12,2.766 -1.947,2.127 -4.255,3.887 -6.804,5.34 6.015,0.453 11.783,0.946 17.006,1.475 l 2.792,-7.139 c -3.609,-0.904 -7.244,-1.715 -10.874,-2.442 m -60.241,3.975 c -0.661,0 -1.419,0.311 -2.374,1.083 1.511,0.065 3.091,0.135 4.729,0.209 -0.771,-0.745 -1.478,-1.292 -2.355,-1.292" /><path
       inkscape:connector-curvature="0"
       id="path98"
       style="fill:#4d421f;fill-opacity:1;fill-rule:nonzero;stroke:none;stroke-width:0.1"
       d="m 245.868,349.101 c -1.186,0 -2.33,0.005 -3.437,0.017 l 6.393,0.361 c 10.98,0.401 50.246,1.946 78.875,4.462 l 7.206,0.408 0.001,-0.002 c -5.223,-0.529 -10.991,-1.022 -17.006,-1.475 -16.52,-1.246 -34.902,-2.201 -48.962,-2.839 -1.638,-0.074 -3.218,-0.144 -4.729,-0.209 -4.189,-0.182 -7.851,-0.33 -10.78,-0.444 -4.745,-0.185 -7.561,-0.279 -7.561,-0.279" /><path
       inkscape:connector-curvature="0"
       id="path100"
       style="fill:#3e3419;fill-opacity:1;fill-rule:nonzero;stroke:none;stroke-width:0.1"
       d="m 248.824,349.479 78.875,4.462 c -28.629,-2.516 -67.895,-4.061 -78.875,-4.462" /><path
       inkscape:connector-curvature="0"
       id="path102"
       style="fill:#d9a37a;fill-opacity:1;fill-rule:nonzero;stroke:none;stroke-width:0.1"
       d="m 164.216,114.32 c -0.051,-4.94 -3.811,-8.905 -8.397,-8.857 -4.586,0.047 -8.265,4.089 -8.215,9.029 0.053,4.939 3.815,8.905 8.401,8.858 4.586,-0.049 8.262,-4.091 8.211,-9.03" /><path
       inkscape:connector-curvature="0"
       id="path104"
       style="fill:#c59376;fill-opacity:1;fill-rule:nonzero;stroke:none;stroke-width:0.1"
       d="m 161.505,114.333 c -0.043,-4.133 -3.19,-7.451 -7.026,-7.411 -3.839,0.04 -6.917,3.422 -6.875,7.556 0.043,4.134 3.192,7.452 7.03,7.412 3.838,-0.04 6.914,-3.423 6.871,-7.557" /><path
       inkscape:connector-curvature="0"
       id="path106"
       style="fill:#d9a37a;fill-opacity:1;fill-rule:nonzero;stroke:none;stroke-width:0.1"
       d="m 77.198,113.333 c -0.0503,-4.938 -3.8062,-8.905 -8.396,-8.858 -4.5879,0.049 -8.2661,4.093 -8.2129,9.03 0.0527,4.94 3.8101,8.905 8.398,8.859 4.5883,-0.048 8.2641,-4.091 8.2109,-9.031" /><path
       inkscape:connector-curvature="0"
       id="path108"
       style="fill:#c59376;fill-opacity:1;fill-rule:nonzero;stroke:none;stroke-width:0.1"
       d="m 76.1238,113.353 c -0.041,-3.832 -2.955,-6.911 -6.5175,-6.874 -3.5583,0.038 -6.4122,3.176 -6.3727,7.007 0.0406,3.833 2.9566,6.911 6.5176,6.874 3.5601,-0.038 6.4136,-3.175 6.3726,-7.007" /><path
       inkscape:connector-curvature="0"
       id="path110"
       style="fill:#ce9a79;fill-opacity:1;fill-rule:nonzero;stroke:none;stroke-width:0.1"
       d="M 105.894,85.4988 V 75.0059 h 10.619 v 10.4929 h -10.619" /><path
       inkscape:connector-curvature="0"
       id="path112"
       style="fill:#d9a37a;fill-opacity:1;fill-rule:nonzero;stroke:none;stroke-width:0.1"
       d="m 157.458,123.322 c -0.252,-24.1681 -20.713,-43.549 -45.699,-43.29 -24.9887,0.259 -45.0434,20.06 -44.793,44.23 0.2496,24.168 20.7125,43.549 45.701,43.29 24.988,-0.26 45.041,-20.063 44.791,-44.23" /><path
       inkscape:connector-curvature="0"
       id="path114"
       style="fill:#ce9a79;fill-opacity:1;fill-rule:nonzero;stroke:none;stroke-width:0.1"
       d="M 102.808,75.727 80.5969,68.4512 111.917,44.8879 139.72,71.1898 119.032,75.727 h -16.224" /><path
       inkscape:connector-curvature="0"
       id="path116"
       style="fill:#ce9a79;fill-opacity:1;fill-rule:nonzero;stroke:none;stroke-width:0.1"
       d="m 154.187,17.8262 -2.252,28.5496 -11.366,-2.2528 2.297,-26.2968 h 11.321" /><path
       inkscape:connector-curvature="0"
       id="path118"
       style="fill:#83913b;fill-opacity:1;fill-rule:nonzero;stroke:none;stroke-width:0.1"
       d="m 89.468,56.5379 1.625,-38.7117 h 44.383 l 1.14,37.834 1.582,-11.859 15.989,2.1738 -6.032,19.6961 c 0,0 -1.66,8.0809 -22.234,9.373 L 110.882,66.7238 95.5676,74.277 C 76.9309,72.1691 75.5535,62.8969 75.5535,62.8969 l -2.939,-17.325 15.9668,-1.3688 0.8867,12.3348" /><path
       inkscape:connector-curvature="0"
       id="path120"
       style="fill:#626b27;fill-opacity:1;fill-rule:nonzero;stroke:none;stroke-width:0.1"
       d="M 90.2742,40.8191 91.241,17.8262 h 1.4145 l -3.1875,38.7117 1.1383,-15.7481 -0.3321,0.0293" /><path
       inkscape:connector-curvature="0"
       id="path122"
       style="fill:#626b27;fill-opacity:1;fill-rule:nonzero;stroke:none;stroke-width:0.1"
       d="m 77.573,59.4852 c 0,0 1.379,9.2707 20.0161,11.3789 l 15.3179,-7.552 15.037,8.3199 c 12.934,-0.8121 18.389,-4.307 20.66,-6.791 l -0.308,1.009 c 0,0 -1.662,8.082 -22.234,9.3738 L 111.026,66.9039 95.7078,74.4551 C 77.0715,72.348 75.6926,63.0762 75.6926,63.0762 L 72.7551,45.752 75.2102,45.541 77.573,59.4852" /><path
       inkscape:connector-curvature="0"
       id="path124"
       style="fill:#626b27;fill-opacity:1;fill-rule:nonzero;stroke:none;stroke-width:0.1"
       d="m 139.718,44.1668 -3.102,11.4934 1.776,-11.6731 z" /><path
       inkscape:connector-curvature="0"
       id="path126"
       style="fill:#ce9a79;fill-opacity:1;fill-rule:nonzero;stroke:none;stroke-width:0.1"
       d="m 83.4016,17.8262 4.4058,26.4437 -13.0136,1.1153 -2.0387,-27.559 h 10.6465" /><path
       inkscape:connector-curvature="0"
       id="path128"
       style="fill:#626b27;fill-opacity:1;fill-rule:nonzero;stroke:none;stroke-width:0.1"
       d="m 105.573,78.0309 -12.6597,-2.9868 17.9687,-9.675 17.564,10.9688 -12.254,1.693 -5.31,-12.6618 -5.309,12.6618" /><path
       inkscape:connector-curvature="0"
       id="path130"
       style="fill:#626b27;fill-opacity:1;fill-rule:nonzero;stroke:none;stroke-width:0.1"
       d="m 132.632,40.9398 h -12.895 v 13.859 h 12.895 v -13.859" /><path
       inkscape:connector-curvature="0"
       id="path132"
       style="fill:#83913b;fill-opacity:1;fill-rule:nonzero;stroke:none;stroke-width:0.1"
       d="m 131.843,53.9578 h -11.256 l 5.605,-5.6098 z" /><path
       inkscape:connector-curvature="0"
       id="path134"
       style="fill:#f9a72b;fill-opacity:1;fill-rule:nonzero;stroke:none;stroke-width:0.1"
       d="m 124.202,58.6879 c 0,-1.282 -1.002,-2.3199 -2.23,-2.3199 -1.235,0 -2.235,1.0379 -2.235,2.3199 0,1.2801 1,2.3191 2.235,2.3191 1.228,0 2.23,-1.039 2.23,-2.3191" /><path
       inkscape:connector-curvature="0"
       id="path136"
       style="fill:#fbc266;fill-opacity:1;fill-rule:nonzero;stroke:none;stroke-width:0.1"
       d="m 123.669,58.6879 c 0,-0.975 -0.762,-1.7649 -1.697,-1.7649 -0.94,0 -1.7,0.7899 -1.7,1.7649 0,0.9742 0.76,1.7641 1.7,1.7641 0.935,0 1.697,-0.7899 1.697,-1.7641" /><path
       inkscape:connector-curvature="0"
       id="path138"
       style="fill:#3bbec5;fill-opacity:1;fill-rule:nonzero;stroke:none;stroke-width:0.1"
       d="m 129.724,58.6879 c 0,-1.282 -1,-2.3199 -2.231,-2.3199 -1.234,0 -2.23,1.0379 -2.23,2.3199 0,1.2801 0.996,2.3191 2.23,2.3191 1.231,0 2.231,-1.039 2.231,-2.3191" /><path
       inkscape:connector-curvature="0"
       id="path140"
       style="fill:#8ed9dd;fill-opacity:1;fill-rule:nonzero;stroke:none;stroke-width:0.1"
       d="m 129.251,58.6879 c 0,-1.0098 -0.789,-1.827 -1.758,-1.827 -0.972,0 -1.758,0.8172 -1.758,1.827 0,1.009 0.786,1.8269 1.758,1.8269 0.969,0 1.758,-0.8179 1.758,-1.8269" /><path
       inkscape:connector-curvature="0"
       id="path142"
       style="fill:#80cc28;fill-opacity:1;fill-rule:nonzero;stroke:none;stroke-width:0.1"
       d="m 135.39,58.6879 c 0,-1.282 -1,-2.3199 -2.231,-2.3199 -1.232,0 -2.232,1.0379 -2.232,2.3199 0,1.2801 1,2.3191 2.232,2.3191 1.231,0 2.231,-1.039 2.231,-2.3191" /><path
       inkscape:connector-curvature="0"
       id="path144"
       style="fill:#b3dd42;fill-opacity:1;fill-rule:nonzero;stroke:none;stroke-width:0.1"
       d="m 134.858,58.6879 c 0,-0.975 -0.759,-1.7649 -1.697,-1.7649 -0.939,0 -1.699,0.7899 -1.699,1.7649 0,0.9742 0.76,1.7641 1.699,1.7641 0.938,0 1.697,-0.7899 1.697,-1.7641" /><path
       inkscape:connector-curvature="0"
       id="path146"
       style="fill:#f9a72b;fill-opacity:1;fill-rule:nonzero;stroke:none;stroke-width:0.1"
       d="m 93.5461,58.6879 c 0,-1.282 -1,-2.3199 -2.2309,-2.3199 -1.2359,0 -2.2339,1.0379 -2.2339,2.3199 0,1.2801 0.998,2.3191 2.2339,2.3191 1.2309,0 2.2309,-1.039 2.2309,-2.3191" /><path
       inkscape:connector-curvature="0"
       id="path148"
       style="fill:#fbc266;fill-opacity:1;fill-rule:nonzero;stroke:none;stroke-width:0.1"
       d="m 93.0129,58.6879 c 0,-0.975 -0.7602,-1.7649 -1.6977,-1.7649 -0.939,0 -1.7007,0.7899 -1.7007,1.7649 0,0.9742 0.7617,1.7641 1.7007,1.7641 0.9375,0 1.6977,-0.7899 1.6977,-1.7641" /><path
       inkscape:connector-curvature="0"
       id="path150"
       style="fill:#d82930;fill-opacity:1;fill-rule:nonzero;stroke:none;stroke-width:0.1"
       d="m 99.0652,58.6879 c 0,-1.282 -0.9961,-2.3199 -2.23,-2.3199 -1.2329,0 -2.2305,1.0379 -2.2305,2.3199 0,1.2801 0.9976,2.3191 2.2305,2.3191 1.2339,0 2.23,-1.039 2.23,-2.3191" /><path
       inkscape:connector-curvature="0"
       id="path152"
       style="fill:#8ed9dd;fill-opacity:1;fill-rule:nonzero;stroke:none;stroke-width:0.1"
       d="m 98.5945,58.6879 c 0,-1.0098 -0.7871,-1.827 -1.7593,-1.827 -0.9707,0 -1.7559,0.8172 -1.7559,1.827 0,1.009 0.7852,1.8269 1.7559,1.8269 0.9722,0 1.7593,-0.8179 1.7593,-1.8269" /><path
       inkscape:connector-curvature="0"
       id="path154"
       style="fill:#80cc28;fill-opacity:1;fill-rule:nonzero;stroke:none;stroke-width:0.1"
       d="m 104.735,58.6879 c 0,-1.282 -1,-2.3199 -2.23,-2.3199 -1.234,0 -2.234,1.0379 -2.234,2.3199 0,1.2801 1,2.3191 2.234,2.3191 1.23,0 2.23,-1.039 2.23,-2.3191" /><path
       inkscape:connector-curvature="0"
       id="path156"
       style="fill:#b3dd42;fill-opacity:1;fill-rule:nonzero;stroke:none;stroke-width:0.1"
       d="m 104.202,58.6879 c 0,-0.975 -0.76,-1.7649 -1.697,-1.7649 -0.94,0 -1.699,0.7899 -1.699,1.7649 0,0.9742 0.759,1.7641 1.699,1.7641 0.937,0 1.697,-0.7899 1.697,-1.7641" /><path
       inkscape:connector-curvature="0"
       id="path158"
       style="fill:#bf1b2c;fill-opacity:1;fill-rule:nonzero;stroke:none;stroke-width:0.1"
       d="m 123.802,73.5418 -2.119,-1.3227 -10.801,-6.85 -6.77,3.8989 -4.5429,2.4461 -0.4453,-0.0141 11.7582,-10.7809 12.92,12.6227" /><path
       inkscape:connector-curvature="0"
       id="path160"
       style="fill:#bf1b2c;fill-opacity:1;fill-rule:nonzero;stroke:none;stroke-width:0.1"
       d="m 108.671,62.3059 c 0,0 -11.1019,0.9203 0.875,-42.7348 0,0 7.443,29.084 3.062,42.7367 l -3.937,-0.0019" /><path
       inkscape:connector-curvature="0"
       id="path162"
       style="fill:#bf1b2c;fill-opacity:1;fill-rule:nonzero;stroke:none;stroke-width:0.1"
       d="m 110.833,60.3969 c 0,0 -0.469,-10.8821 11.346,-18.302 0,0 4.8,9.9012 -7.28,20.2129 l -4.066,-1.9109" /><path
       inkscape:connector-curvature="0"
       id="path164"
       style="fill:#a21a29;fill-opacity:1;fill-rule:nonzero;stroke:none;stroke-width:0.1"
       d="m 115.171,63.6328 c 0,-1.8047 -1.645,-3.2687 -3.674,-3.2687 -2.031,0 -3.68,1.464 -3.68,3.2687 0,1.8051 1.649,3.2684 3.68,3.2684 2.029,0 3.674,-1.4633 3.674,-3.2684" /><path
       inkscape:connector-curvature="0"
       id="path166"
       style="fill:#a21a29;fill-opacity:1;fill-rule:nonzero;stroke:none;stroke-width:0.1"
       d="m 111.589,61.1969 -0.707,-0.343 c 0,0 -0.463,-11.1551 11.254,-18.759 0,0 0.111,0.2391 0.256,0.6789 -10.887,7.3532 -10.819,17.768 -10.803,18.4231" /><path
       inkscape:connector-curvature="0"
       id="path168"
       style="fill:#c35822;fill-opacity:1;fill-rule:nonzero;stroke:none;stroke-width:0.1"
       d="m 64.9578,120.36 c 0,0 24.0664,13.612 35.8892,30.402 l -9.7857,11.74 c 0,0 -31.9746,-10.32 -26.1035,-42.142" /><path
       inkscape:connector-curvature="0"
       id="path170"
       style="fill:#d56127;fill-opacity:1;fill-rule:nonzero;stroke:none;stroke-width:0.1"
       d="m 100.847,150.762 c 0,0 10.66,-15.858 55.062,-29.732 0,0 9.49,48.152 -41.172,53.707 0,0 -18.6772,2.481 -23.6757,-12.235 l 9.7857,-11.74" /><path
       inkscape:connector-curvature="0"
       id="path172"
       style="fill:#9f926c;fill-opacity:1;fill-rule:nonzero;stroke:none;stroke-width:0.1"
       d="m 68.9398,145.141 0.7387,1.747 0.411,0.024 c -0.3969,-0.572 -0.7813,-1.163 -1.1497,-1.771" /><path
       inkscape:connector-curvature="0"
       id="path174"
       style="fill:#8c6440;fill-opacity:1;fill-rule:nonzero;stroke:none;stroke-width:0.1"
       d="m 86.7043,135.772 c 4.4836,3.832 8.9309,8.183 12.5352,12.821 l 3.2765,0.188 c 2.182,-2.323 6.749,-6.493 15.081,-11.441 -11.737,-1.194 -22.3458,-1.561 -30.8927,-1.568" /><path
       inkscape:connector-curvature="0"
       id="path176"
       style="fill:#813c20;fill-opacity:1;fill-rule:nonzero;stroke:none;stroke-width:0.1"
       d="m 86.443,135.772 c -12.966,0 -21.1157,0.826 -21.1157,0.826 l 3.6125,8.543 c 0.3684,0.608 0.7528,1.199 1.1497,1.771 l 29.15,1.681 c -3.6043,-4.638 -8.0516,-8.989 -12.5352,-12.821 -0.0883,0 -0.1738,0 -0.2613,0" /><path
       inkscape:connector-curvature="0"
       id="path178"
       style="fill:#9f926c;fill-opacity:1;fill-rule:nonzero;stroke:none;stroke-width:0.1"
       d="m 153.162,149.073 c -0.343,0.857 -0.717,1.713 -1.127,2.564 l 0.456,0.026 0.671,-2.59" /><path
       inkscape:connector-curvature="0"
       id="path180"
       style="fill:#8c4122;fill-opacity:1;fill-rule:nonzero;stroke:none;stroke-width:0.1"
       d="m 117.597,137.34 c -8.332,4.948 -12.899,9.118 -15.081,11.441 l 49.519,2.856 c 0.41,-0.851 0.784,-1.707 1.127,-2.564 l 1.394,-5.383 c -12.814,-3.209 -25.43,-5.178 -36.959,-6.35" /><path
       inkscape:connector-curvature="0"
       id="path182"
       style="fill:#73652a;fill-opacity:1;fill-rule:nonzero;stroke:none;stroke-width:0.1"
       d="m 149.587,165.333 c -10.971,32.602 -36.619,30.402 -36.619,30.402 -39.9809,0.031 -44.0742,-30.544 -44.0742,-30.544 L 39.0422,150.835 c 0,0 -22.9668,-10.354 27.9234,-10.354 0,0 114.0214,3.815 113.5454,10.446 0,0 6.789,0.814 -30.924,14.406" /><path
       inkscape:connector-curvature="0"
       id="path184"
       style="fill:#5c4e21;fill-opacity:1;fill-rule:nonzero;stroke:none;stroke-width:0.1"
       d="m 45.7898,148.68 29.854,14.355 c 0,0 4.0933,30.576 44.0762,30.544 0,0 2.875,0.24 7.101,-0.65 -7.627,3.355 -13.855,2.83 -13.855,2.83 -39.9805,0.03 -44.0765,-30.545 -44.0765,-30.545 L 39.0359,150.858 c 0,0 -13.332,-6.013 2.8481,-8.873 -4.3305,2.979 3.9058,6.695 3.9058,6.695" /><path
       inkscape:connector-curvature="0"
       id="path186"
       style="fill:#351f17;fill-opacity:1;fill-rule:nonzero;stroke:none;stroke-width:0.1"
       d="m 68.8938,165.191 c 0,0 8.8765,-3.593 79.6092,2.281 l 8.959,-5.138 c 0,0 -63.539,-11.236 -99.5819,-2.44 l 11.0137,5.297" /><path
       inkscape:connector-curvature="0"
       id="path188"
       style="fill:#5c4e21;fill-opacity:1;fill-rule:nonzero;stroke:none;stroke-width:0.1"
       d="m 179.187,153.31 c -12.651,-5.848 -112.2229,-9.18 -112.2229,-9.18 -21.5469,0 -29.8536,1.856 -32.2676,3.996 -2.6543,-3.058 -0.5805,-7.372 32.2676,-7.372 0,0 114.0229,3.816 113.5469,10.445 0,0 1.699,0.205 -1.324,2.111" /><path
       inkscape:connector-curvature="0"
       id="path190"
       style="fill:#1b110f;fill-opacity:1;fill-rule:nonzero;stroke:none;stroke-width:0.1"
       d="m 243.659,111.767 c 0,0 -15.246,-23.3502 -1.93,-42.3522 l 14.518,-11.9527 72.705,2.8449 8.914,25.1918 -5.64,25.3622 -88.567,0.906" /><path
       inkscape:connector-curvature="0"
       id="path192"
       style="fill:#ce9a79;fill-opacity:1;fill-rule:nonzero;stroke:none;stroke-width:0.1"
       d="M 280.659,85.4988 V 75.0059 h 10.619 v 10.4929 h -10.619" /><path
       inkscape:connector-curvature="0"
       id="path194"
       style="fill:#d9a37a;fill-opacity:1;fill-rule:nonzero;stroke:none;stroke-width:0.1"
       d="m 332.224,123.322 c -0.252,-24.1681 -20.713,-43.549 -45.7,-43.29 -24.988,0.259 -45.043,20.06 -44.793,44.23 0.25,24.168 20.713,43.549 45.702,43.29 24.986,-0.26 45.041,-20.063 44.791,-44.23" /><path
       inkscape:connector-curvature="0"
       id="path196"
       style="fill:#d9a37a;fill-opacity:1;fill-rule:nonzero;stroke:none;stroke-width:0.1"
       d="m 251.964,113.333 c -0.049,-4.938 -3.807,-8.905 -8.397,-8.858 -4.588,0.049 -8.263,4.093 -8.214,9.03 0.054,4.94 3.812,8.905 8.4,8.859 4.59,-0.048 8.264,-4.091 8.211,-9.031" /><path
       inkscape:connector-curvature="0"
       id="path198"
       style="fill:#d9a37a;fill-opacity:1;fill-rule:nonzero;stroke:none;stroke-width:0.1"
       d="m 337.866,114.32 c -0.051,-4.94 -3.81,-8.905 -8.396,-8.857 -4.586,0.047 -8.264,4.089 -8.215,9.029 0.053,4.939 3.814,8.905 8.402,8.858 4.584,-0.049 8.26,-4.091 8.209,-9.03" /><path
       inkscape:connector-curvature="0"
       id="path200"
       style="fill:#ce9a79;fill-opacity:1;fill-rule:nonzero;stroke:none;stroke-width:0.1"
       d="M 277.575,75.727 255.362,68.4512 286.683,44.8879 314.487,71.1898 293.8,75.727 h -16.225" /><path
       inkscape:connector-curvature="0"
       id="path202"
       style="fill:#ce9a79;fill-opacity:1;fill-rule:nonzero;stroke:none;stroke-width:0.1"
       d="m 328.952,17.8262 -2.254,28.5496 -11.363,-2.2528 2.299,-26.2968 h 11.318" /><path
       inkscape:connector-curvature="0"
       id="path204"
       style="fill:#83913b;fill-opacity:1;fill-rule:nonzero;stroke:none;stroke-width:0.1"
       d="m 264.235,56.5379 1.623,-38.7117 h 44.385 l 1.139,37.834 1.582,-11.859 15.988,2.1738 -6.031,19.6961 c 0,0 -1.66,8.0809 -22.234,9.373 l -15.04,-8.3203 -15.314,7.5532 C 251.696,72.1691 250.319,62.8969 250.319,62.8969 l -2.939,-17.325 15.967,-1.3688 0.888,12.3348" /><path
       inkscape:connector-curvature="0"
       id="path206"
       style="fill:#626b27;fill-opacity:1;fill-rule:nonzero;stroke:none;stroke-width:0.1"
       d="m 265.042,40.8191 0.965,-22.9929 h 1.416 l -3.188,38.7117 1.137,-15.7481 -0.33,0.0293" /><path
       inkscape:connector-curvature="0"
       id="path208"
       style="fill:#626b27;fill-opacity:1;fill-rule:nonzero;stroke:none;stroke-width:0.1"
       d="m 252.341,59.4852 c 0,0 1.377,9.2707 20.013,11.3789 l 15.319,-7.552 15.037,8.3199 c 12.932,-0.8121 18.389,-4.307 20.662,-6.791 l -0.31,1.009 c 0,0 -1.663,8.082 -22.235,9.3738 l -15.035,-8.3199 -15.318,7.5512 C 251.837,72.348 250.458,63.0762 250.458,63.0762 l -2.937,-17.3242 2.455,-0.211 2.365,13.9442" /><path
       inkscape:connector-curvature="0"
       id="path210"
       style="fill:#626b27;fill-opacity:1;fill-rule:nonzero;stroke:none;stroke-width:0.1"
       d="m 314.483,44.1668 -3.101,11.4934 1.775,-11.6731 z" /><path
       inkscape:connector-curvature="0"
       id="path212"
       style="fill:#ce9a79;fill-opacity:1;fill-rule:nonzero;stroke:none;stroke-width:0.1"
       d="m 258.167,17.8262 4.406,26.4437 -13.013,1.1153 -2.039,-27.559 h 10.646" /><path
       inkscape:connector-curvature="0"
       id="path214"
       style="fill:#626b27;fill-opacity:1;fill-rule:nonzero;stroke:none;stroke-width:0.1"
       d="m 280.339,78.0309 -12.66,-2.9868 17.968,-9.675 17.565,10.9688 -12.254,1.693 -5.311,-12.6618 -5.308,12.6618" /><path
       inkscape:connector-curvature="0"
       id="path216"
       style="fill:#626b27;fill-opacity:1;fill-rule:nonzero;stroke:none;stroke-width:0.1"
       d="m 307.397,40.9398 h -12.894 v 13.859 h 12.894 v -13.859" /><path
       inkscape:connector-curvature="0"
       id="path218"
       style="fill:#83913b;fill-opacity:1;fill-rule:nonzero;stroke:none;stroke-width:0.1"
       d="m 306.608,53.9578 h -11.255 l 5.605,-5.6098 z" /><path
       inkscape:connector-curvature="0"
       id="path220"
       style="fill:#f9a72b;fill-opacity:1;fill-rule:nonzero;stroke:none;stroke-width:0.1"
       d="m 298.968,58.6879 c 0,-1.282 -1,-2.3199 -2.233,-2.3199 -1.232,0 -2.232,1.0379 -2.232,2.3199 0,1.2801 1,2.3191 2.232,2.3191 1.233,0 2.233,-1.039 2.233,-2.3191" /><path
       inkscape:connector-curvature="0"
       id="path222"
       style="fill:#fbc266;fill-opacity:1;fill-rule:nonzero;stroke:none;stroke-width:0.1"
       d="m 298.435,58.6879 c 0,-0.975 -0.762,-1.7649 -1.7,-1.7649 -0.935,0 -1.699,0.7899 -1.699,1.7649 0,0.9742 0.764,1.7641 1.699,1.7641 0.938,0 1.7,-0.7899 1.7,-1.7641" /><path
       inkscape:connector-curvature="0"
       id="path224"
       style="fill:#3bbec5;fill-opacity:1;fill-rule:nonzero;stroke:none;stroke-width:0.1"
       d="m 304.489,58.6879 c 0,-1.282 -1,-2.3199 -2.23,-2.3199 -1.233,0 -2.231,1.0379 -2.231,2.3199 0,1.2801 0.998,2.3191 2.231,2.3191 1.23,0 2.23,-1.039 2.23,-2.3191" /><path
       inkscape:connector-curvature="0"
       id="path226"
       style="fill:#8ed9dd;fill-opacity:1;fill-rule:nonzero;stroke:none;stroke-width:0.1"
       d="m 304.017,58.6879 c 0,-1.0098 -0.788,-1.827 -1.758,-1.827 -0.973,0 -1.758,0.8172 -1.758,1.827 0,1.009 0.785,1.8269 1.758,1.8269 0.97,0 1.758,-0.8179 1.758,-1.8269" /><path
       inkscape:connector-curvature="0"
       id="path228"
       style="fill:#80cc28;fill-opacity:1;fill-rule:nonzero;stroke:none;stroke-width:0.1"
       d="m 310.157,58.6879 c 0,-1.282 -1.002,-2.3199 -2.232,-2.3199 -1.233,0 -2.233,1.0379 -2.233,2.3199 0,1.2801 1,2.3191 2.233,2.3191 1.23,0 2.232,-1.039 2.232,-2.3191" /><path
       inkscape:connector-curvature="0"
       id="path230"
       style="fill:#b3dd42;fill-opacity:1;fill-rule:nonzero;stroke:none;stroke-width:0.1"
       d="m 309.624,58.6879 c 0,-0.975 -0.76,-1.7649 -1.697,-1.7649 -0.94,0 -1.699,0.7899 -1.699,1.7649 0,0.9742 0.759,1.7641 1.699,1.7641 0.937,0 1.697,-0.7899 1.697,-1.7641" /><path
       inkscape:connector-curvature="0"
       id="path232"
       style="fill:#f9a72b;fill-opacity:1;fill-rule:nonzero;stroke:none;stroke-width:0.1"
       d="m 268.313,58.6879 c 0,-1.282 -1.001,-2.3199 -2.232,-2.3199 -1.236,0 -2.234,1.0379 -2.234,2.3199 0,1.2801 0.998,2.3191 2.234,2.3191 1.231,0 2.232,-1.039 2.232,-2.3191" /><path
       inkscape:connector-curvature="0"
       id="path234"
       style="fill:#fbc266;fill-opacity:1;fill-rule:nonzero;stroke:none;stroke-width:0.1"
       d="m 267.778,58.6879 c 0,-0.975 -0.759,-1.7649 -1.697,-1.7649 -0.939,0 -1.701,0.7899 -1.701,1.7649 0,0.9742 0.762,1.7641 1.701,1.7641 0.938,0 1.697,-0.7899 1.697,-1.7641" /><path
       inkscape:connector-curvature="0"
       id="path236"
       style="fill:#d82930;fill-opacity:1;fill-rule:nonzero;stroke:none;stroke-width:0.1"
       d="m 273.833,58.6879 c 0,-1.282 -0.998,-2.3199 -2.232,-2.3199 -1.233,0 -2.231,1.0379 -2.231,2.3199 0,1.2801 0.998,2.3191 2.231,2.3191 1.234,0 2.232,-1.039 2.232,-2.3191" /><path
       inkscape:connector-curvature="0"
       id="path238"
       style="fill:#8ed9dd;fill-opacity:1;fill-rule:nonzero;stroke:none;stroke-width:0.1"
       d="m 273.36,58.6879 c 0,-1.0098 -0.787,-1.827 -1.759,-1.827 -0.971,0 -1.756,0.8172 -1.756,1.827 0,1.009 0.785,1.8269 1.756,1.8269 0.972,0 1.759,-0.8179 1.759,-1.8269" /><path
       inkscape:connector-curvature="0"
       id="path240"
       style="fill:#80cc28;fill-opacity:1;fill-rule:nonzero;stroke:none;stroke-width:0.1"
       d="m 279.501,58.6879 c 0,-1.282 -1,-2.3199 -2.23,-2.3199 -1.235,0 -2.235,1.0379 -2.235,2.3199 0,1.2801 1,2.3191 2.235,2.3191 1.23,0 2.23,-1.039 2.23,-2.3191" /><path
       inkscape:connector-curvature="0"
       id="path242"
       style="fill:#b3dd42;fill-opacity:1;fill-rule:nonzero;stroke:none;stroke-width:0.1"
       d="m 278.968,58.6879 c 0,-0.975 -0.758,-1.7649 -1.697,-1.7649 -0.94,0 -1.7,0.7899 -1.7,1.7649 0,0.9742 0.76,1.7641 1.7,1.7641 0.939,0 1.697,-0.7899 1.697,-1.7641" /><path
       inkscape:connector-curvature="0"
       id="path244"
       style="fill:#bf1b2c;fill-opacity:1;fill-rule:nonzero;stroke:none;stroke-width:0.1"
       d="m 298.565,73.5418 -2.119,-1.3227 -10.799,-6.85 -6.769,3.8989 -4.543,2.4461 -0.445,-0.0141 11.757,-10.7809 12.918,12.6227" /><path
       inkscape:connector-curvature="0"
       id="path246"
       style="fill:#bf1b2c;fill-opacity:1;fill-rule:nonzero;stroke:none;stroke-width:0.1"
       d="m 283.438,62.3059 c 0,0 -11.103,0.9203 0.874,-42.7348 0,0 7.443,29.084 3.062,42.7367 l -3.936,-0.0019" /><path
       inkscape:connector-curvature="0"
       id="path248"
       style="fill:#bf1b2c;fill-opacity:1;fill-rule:nonzero;stroke:none;stroke-width:0.1"
       d="m 285.599,60.3969 c 0,0 -0.467,-10.8821 11.347,-18.302 0,0 4.801,9.9012 -7.281,20.2129 l -4.066,-1.9109" /><path
       inkscape:connector-curvature="0"
       id="path250"
       style="fill:#a21a29;fill-opacity:1;fill-rule:nonzero;stroke:none;stroke-width:0.1"
       d="m 289.938,63.6328 c 0,-1.8047 -1.646,-3.2687 -3.675,-3.2687 -2.032,0 -3.678,1.464 -3.678,3.2687 0,1.8051 1.646,3.2684 3.678,3.2684 2.029,0 3.675,-1.4633 3.675,-3.2684" /><path
       inkscape:connector-curvature="0"
       id="path252"
       style="fill:#a21a29;fill-opacity:1;fill-rule:nonzero;stroke:none;stroke-width:0.1"
       d="m 286.354,61.1969 -0.707,-0.343 c 0,0 -0.462,-11.1551 11.256,-18.759 0,0 0.11,0.2391 0.256,0.6789 -10.888,7.3532 -10.82,17.768 -10.805,18.4231" /><path
       inkscape:connector-curvature="0"
       id="path254"
       style="fill:#351f17;fill-opacity:1;fill-rule:nonzero;stroke:none;stroke-width:0.1"
       d="m 323.372,52.2012 c -8.598,12.9027 5.58,17.7957 5.58,17.7957 5.582,5.157 0.609,15.5019 0.609,15.5019 -6.708,16.0852 -3.33,47.2172 -3.33,47.2172 -62.841,19.01 -60.404,29.786 -60.404,29.786 17.037,21.863 56.317,8.973 56.317,8.973 30.808,-14.578 24.802,-36.571 24.802,-36.571 0,0 -8.201,-26.77 -0.914,-44.297 0,0 6.33,-24.6652 -11.834,-33.684 l -10.826,-4.7218" /><path
       inkscape:connector-curvature="0"
       id="path256"
       style="fill:#351f17;fill-opacity:1;fill-rule:nonzero;stroke:none;stroke-width:0.1"
       d="m 269.845,155.331 c 0,0 -18.912,4.112 -17.881,-31.539 0,0 0.902,-12.789 -8.305,-26.174 0,0 -11.014,-17.5879 8.305,-32.2489 0,0 8.152,-10.0851 3.082,-14.9562 0,0 -2.617,10.6281 -13.756,16.4883 0,0 -23.592,13.1406 -8.75,35.0158 0,0 5.627,6.622 2.813,30.799 0,0 -2.551,44.9 45.306,40.037 l -10.814,-17.422" /><path
       inkscape:connector-curvature="0"
       id="path258"
       style="fill:#9f926c;fill-opacity:1;fill-rule:nonzero;stroke:none;stroke-width:0.1"
       d="m 235.807,140.457 c -0.3,0.039 -0.454,0.06 -0.454,0.06 l 1.489,5.279 c -0.478,-1.903 -0.809,-3.71 -1.035,-5.339" /><path
       inkscape:connector-curvature="0"
       id="path260"
       style="fill:#8c6440;fill-opacity:1;fill-rule:nonzero;stroke:none;stroke-width:0.1"
       d="m 295.206,136.786 c -16.196,0 -31.276,0.948 -42.243,1.888 0.837,4.269 2.115,7.465 3.604,9.857 l 26.202,0.293 c 6.771,-3.329 16.236,-7.229 29.468,-11.661 -5.73,-0.265 -11.446,-0.377 -17.031,-0.377" /><path
       inkscape:connector-curvature="0"
       id="path262"
       style="fill:#25160f;fill-opacity:1;fill-rule:nonzero;stroke:none;stroke-width:0.1"
       d="m 312.237,137.163 c -13.232,4.432 -22.697,8.332 -29.468,11.661 l 61.791,0.693 2.386,-8.399 c -10.892,-2.205 -22.823,-3.407 -34.709,-3.955" /><path
       inkscape:connector-curvature="0"
       id="path264"
       style="fill:#25160f;fill-opacity:1;fill-rule:nonzero;stroke:none;stroke-width:0.1"
       d="m 252.963,138.674 c -9.166,0.786 -15.466,1.566 -17.156,1.783 0.226,1.629 0.557,3.436 1.035,5.339 l 0.712,2.522 19.013,0.213 c -1.489,-2.392 -2.767,-5.588 -3.604,-9.857" /><path
       inkscape:connector-curvature="0"
       id="path266"
       style="fill:#73652a;fill-opacity:1;fill-rule:nonzero;stroke:none;stroke-width:0.1"
       d="m 329.198,168.61 c -9.47,33.067 -35.193,32.04 -35.193,32.04 -39.936,1.853 -45.42,-28.504 -45.42,-28.504 l -30.477,-12.979 c 0,0 -23.416,-9.297 27.424,-11.616 0,0 114.076,-1.388 113.905,5.258 0,0 6.818,0.504 -30.239,15.801" /><path
       inkscape:connector-curvature="0"
       id="path268"
       style="fill:#5c4e21;fill-opacity:1;fill-rule:nonzero;stroke:none;stroke-width:0.1"
       d="m 224.753,156.706 30.476,12.98 c 0,0 5.483,30.357 45.422,28.503 0,0 2.883,0.108 7.065,-0.974 -7.465,3.699 -13.711,3.458 -13.711,3.458 -39.938,1.854 -45.422,-28.503 -45.422,-28.503 l -30.479,-12.979 c 0,0 -13.593,-5.4 2.442,-8.995 -4.192,3.174 4.207,6.51 4.207,6.51" /><path
       inkscape:connector-curvature="0"
       id="path270"
       style="fill:#351f17;fill-opacity:1;fill-rule:nonzero;stroke:none;stroke-width:0.1"
       d="m 248.585,172.146 c 0,0 8.703,-3.992 79.629,-1.35 l 8.717,-5.541 c 0,0 -63.987,-8.328 -99.588,2.103 l 11.242,4.788" /><path
       inkscape:connector-curvature="0"
       id="path272"
       style="fill:#5c4e21;fill-opacity:1;fill-rule:nonzero;stroke:none;stroke-width:0.1"
       d="m 358.22,155.249 c -12.905,-5.264 -112.524,-4.053 -112.524,-4.053 -21.525,0.982 -29.736,3.214 -32.052,5.462 -2.79,-2.934 -0.915,-7.336 31.9,-8.835 0,0 114.076,-1.386 113.904,5.258 0,0 1.705,0.127 -1.228,2.168" /><path
       inkscape:connector-curvature="0"
       id="path274"
       style="fill:#89501c;fill-opacity:1;fill-rule:nonzero;stroke:none;stroke-width:0.1"
       d="m 69.8816,306.961 17.0414,-45.547 49.508,6.397 12.742,44.266 -79.2914,-5.116" /><path
       inkscape:connector-curvature="0"
       id="path276"
       style="fill:#ce9a79;fill-opacity:1;fill-rule:nonzero;stroke:none;stroke-width:0.1"
       d="m 101.755,292.114 v -10.493 h 10.619 v 10.493 h -10.619" /><path
       inkscape:connector-curvature="0"
       id="path278"
       style="fill:#d9a37a;fill-opacity:1;fill-rule:nonzero;stroke:none;stroke-width:0.1"
       d="m 153.319,329.938 c -0.252,-24.17 -20.713,-43.55 -45.699,-43.291 -24.9884,0.258 -45.0427,20.06 -44.793,44.229 0.2523,24.169 20.7128,43.55 45.701,43.29 24.989,-0.259 45.041,-20.061 44.791,-44.228" /><path
       inkscape:connector-curvature="0"
       id="path280"
       style="fill:#d9a37a;fill-opacity:1;fill-rule:nonzero;stroke:none;stroke-width:0.1"
       d="m 73.0613,319.948 c -0.0508,-4.938 -3.8086,-8.905 -8.398,-8.858 -4.5879,0.049 -8.2641,4.093 -8.2129,9.03 0.0523,4.94 3.8101,8.906 8.398,8.859 4.5903,-0.048 8.2637,-4.092 8.2129,-9.031" /><path
       inkscape:connector-curvature="0"
       id="path282"
       style="fill:#d9a37a;fill-opacity:1;fill-rule:nonzero;stroke:none;stroke-width:0.1"
       d="m 158.964,320.935 c -0.051,-4.94 -3.813,-8.905 -8.399,-8.858 -4.586,0.048 -8.263,4.089 -8.212,9.03 0.05,4.939 3.812,8.905 8.4,8.857 4.584,-0.048 8.26,-4.09 8.211,-9.029" /><path
       inkscape:connector-curvature="0"
       id="path284"
       style="fill:#ce9a79;fill-opacity:1;fill-rule:nonzero;stroke:none;stroke-width:0.1"
       d="m 98.6711,282.341 -22.2109,-7.275 31.3178,-23.563 27.805,26.302 -20.687,4.536 H 98.6711" /><path
       inkscape:connector-curvature="0"
       id="path286"
       style="fill:#ce9a79;fill-opacity:1;fill-rule:nonzero;stroke:none;stroke-width:0.1"
       d="m 150.048,224.442 -2.254,28.549 -11.363,-2.252 2.298,-26.297 h 11.319" /><path
       inkscape:connector-curvature="0"
       id="path288"
       style="fill:#83913b;fill-opacity:1;fill-rule:nonzero;stroke:none;stroke-width:0.1"
       d="m 85.3313,263.154 1.625,-38.712 h 44.3827 l 1.139,37.834 1.582,-11.861 15.988,2.175 -6.031,19.696 c 0,0 -1.661,8.081 -22.235,9.373 l -15.037,-8.32 -15.3165,7.553 c -18.6363,-2.109 -20.0137,-11.38 -20.0137,-11.38 l -2.9375,-17.325 15.9668,-1.368 0.8872,12.335" /><path
       inkscape:connector-curvature="0"
       id="path290"
       style="fill:#626b27;fill-opacity:1;fill-rule:nonzero;stroke:none;stroke-width:0.1"
       d="m 86.1379,247.434 0.9644,-22.992 h 1.4165 l -3.1875,38.712 1.1367,-15.749 -0.3301,0.029" /><path
       inkscape:connector-curvature="0"
       id="path292"
       style="fill:#626b27;fill-opacity:1;fill-rule:nonzero;stroke:none;stroke-width:0.1"
       d="m 73.4363,266.1 c 0,0 1.3774,9.271 20.0157,11.379 l 15.317,-7.552 15.037,8.32 c 12.933,-0.812 18.388,-4.306 20.662,-6.791 l -0.311,1.009 c 0,0 -1.662,8.082 -22.234,9.374 l -15.035,-8.32 -15.3189,7.552 C 72.9348,278.963 71.5535,269.692 71.5535,269.692 l -2.9375,-17.325 2.4555,-0.211 2.3648,13.944" /><path
       inkscape:connector-curvature="0"
       id="path294"
       style="fill:#626b27;fill-opacity:1;fill-rule:nonzero;stroke:none;stroke-width:0.1"
       d="m 135.579,250.782 -3.101,11.494 1.775,-11.674 z" /><path
       inkscape:connector-curvature="0"
       id="path296"
       style="fill:#ce9a79;fill-opacity:1;fill-rule:nonzero;stroke:none;stroke-width:0.1"
       d="M 79.2645,224.442 83.6688,250.885 70.6555,252 68.616,224.442 h 10.6485" /><path
       inkscape:connector-curvature="0"
       id="path298"
       style="fill:#484c1b;fill-opacity:1;fill-rule:nonzero;stroke:none;stroke-width:0.1"
       d="m 101.437,284.647 -12.6604,-2.988 17.9684,-9.675 17.563,10.969 -12.252,1.694 -5.311,-12.663 -5.308,12.663" /><path
       inkscape:connector-curvature="0"
       id="path300"
       style="fill:#626b27;fill-opacity:1;fill-rule:nonzero;stroke:none;stroke-width:0.1"
       d="m 128.495,247.555 h -12.896 v 13.859 h 12.896 v -13.859" /><path
       inkscape:connector-curvature="0"
       id="path302"
       style="fill:#83913b;fill-opacity:1;fill-rule:nonzero;stroke:none;stroke-width:0.1"
       d="m 127.704,260.573 h -11.256 l 5.606,-5.61 z" /><path
       inkscape:connector-curvature="0"
       id="path304"
       style="fill:#f9a72b;fill-opacity:1;fill-rule:nonzero;stroke:none;stroke-width:0.1"
       d="m 120.063,265.303 c 0,-1.281 -1,-2.319 -2.23,-2.319 -1.232,0 -2.234,1.038 -2.234,2.319 0,1.28 1.002,2.319 2.234,2.319 1.23,0 2.23,-1.039 2.23,-2.319" /><path
       inkscape:connector-curvature="0"
       id="path306"
       style="fill:#fbc266;fill-opacity:1;fill-rule:nonzero;stroke:none;stroke-width:0.1"
       d="m 119.53,265.303 c 0,-0.976 -0.759,-1.765 -1.697,-1.765 -0.937,0 -1.699,0.789 -1.699,1.765 0,0.975 0.762,1.765 1.699,1.765 0.938,0 1.697,-0.79 1.697,-1.765" /><path
       inkscape:connector-curvature="0"
       id="path308"
       style="fill:#3bbec5;fill-opacity:1;fill-rule:nonzero;stroke:none;stroke-width:0.1"
       d="m 125.585,265.303 c 0,-1.281 -0.998,-2.319 -2.231,-2.319 -1.232,0 -2.23,1.038 -2.23,2.319 0,1.28 0.998,2.319 2.23,2.319 1.233,0 2.231,-1.039 2.231,-2.319" /><path
       inkscape:connector-curvature="0"
       id="path310"
       style="fill:#8ed9dd;fill-opacity:1;fill-rule:nonzero;stroke:none;stroke-width:0.1"
       d="m 125.112,265.303 c 0,-1.01 -0.787,-1.827 -1.758,-1.827 -0.97,0 -1.757,0.817 -1.757,1.827 0,1.009 0.787,1.827 1.757,1.827 0.971,0 1.758,-0.818 1.758,-1.827" /><path
       inkscape:connector-curvature="0"
       id="path312"
       style="fill:#80cc28;fill-opacity:1;fill-rule:nonzero;stroke:none;stroke-width:0.1"
       d="m 131.253,265.303 c 0,-1.281 -1.002,-2.319 -2.232,-2.319 -1.233,0 -2.233,1.038 -2.233,2.319 0,1.28 1,2.319 2.233,2.319 1.23,0 2.232,-1.039 2.232,-2.319" /><path
       inkscape:connector-curvature="0"
       id="path314"
       style="fill:#b3dd42;fill-opacity:1;fill-rule:nonzero;stroke:none;stroke-width:0.1"
       d="m 130.72,265.303 c 0,-0.976 -0.76,-1.765 -1.698,-1.765 -0.939,0 -1.699,0.789 -1.699,1.765 0,0.975 0.76,1.764 1.699,1.764 0.938,0 1.698,-0.789 1.698,-1.764" /><path
       inkscape:connector-curvature="0"
       id="path316"
       style="fill:#f9a72b;fill-opacity:1;fill-rule:nonzero;stroke:none;stroke-width:0.1"
       d="m 89.4094,265.303 c 0,-1.281 -1.0024,-2.319 -2.2324,-2.319 -1.2368,0 -2.2344,1.038 -2.2344,2.319 0,1.28 0.9976,2.319 2.2344,2.319 1.23,0 2.2324,-1.039 2.2324,-2.319" /><path
       inkscape:connector-curvature="0"
       id="path318"
       style="fill:#fbc266;fill-opacity:1;fill-rule:nonzero;stroke:none;stroke-width:0.1"
       d="m 88.8738,265.303 c 0,-0.976 -0.7593,-1.765 -1.6968,-1.765 -0.9399,0 -1.7012,0.789 -1.7012,1.765 0,0.975 0.7613,1.765 1.7012,1.765 0.9375,0 1.6968,-0.79 1.6968,-1.765" /><path
       inkscape:connector-curvature="0"
       id="path320"
       style="fill:#d82930;fill-opacity:1;fill-rule:nonzero;stroke:none;stroke-width:0.1"
       d="m 94.9285,265.303 c 0,-1.281 -0.9976,-2.319 -2.232,-2.319 -1.2324,0 -2.2309,1.038 -2.2309,2.319 0,1.28 0.9985,2.319 2.2309,2.319 1.2344,0 2.232,-1.039 2.232,-2.319" /><path
       inkscape:connector-curvature="0"
       id="path322"
       style="fill:#8ed9dd;fill-opacity:1;fill-rule:nonzero;stroke:none;stroke-width:0.1"
       d="m 94.4563,265.303 c 0,-1.01 -0.7875,-1.827 -1.7598,-1.827 -0.9707,0 -1.7563,0.817 -1.7563,1.827 0,1.009 0.7856,1.827 1.7563,1.827 0.9723,0 1.7598,-0.818 1.7598,-1.827" /><path
       inkscape:connector-curvature="0"
       id="path324"
       style="fill:#80cc28;fill-opacity:1;fill-rule:nonzero;stroke:none;stroke-width:0.1"
       d="m 100.597,265.303 c 0,-1.281 -1.0001,-2.319 -2.231,-2.319 -1.2344,0 -2.232,1.038 -2.232,2.319 0,1.28 0.9976,2.319 2.232,2.319 1.2309,0 2.231,-1.039 2.231,-2.319" /><path
       inkscape:connector-curvature="0"
       id="path326"
       style="fill:#b3dd42;fill-opacity:1;fill-rule:nonzero;stroke:none;stroke-width:0.1"
       d="m 100.063,265.303 c 0,-0.976 -0.7571,-1.765 -1.697,-1.765 -0.939,0 -1.6988,0.789 -1.6988,1.765 0,0.975 0.7598,1.764 1.6988,1.764 0.9399,0 1.697,-0.789 1.697,-1.764" /><path
       inkscape:connector-curvature="0"
       id="path328"
       style="fill:#bf1b2c;fill-opacity:1;fill-rule:nonzero;stroke:none;stroke-width:0.1"
       d="m 119.663,280.157 -2.119,-1.323 -10.799,-6.85 -6.7716,3.898 -4.5425,2.447 -0.4438,-0.014 11.7579,-10.782 12.918,12.624" /><path
       inkscape:connector-curvature="0"
       id="path330"
       style="fill:#bf1b2c;fill-opacity:1;fill-rule:nonzero;stroke:none;stroke-width:0.1"
       d="m 104.534,268.921 c 0,0 -11.1031,0.92 0.873,-42.735 0,0 7.444,29.083 3.063,42.737 l -3.936,-0.002" /><path
       inkscape:connector-curvature="0"
       id="path332"
       style="fill:#bf1b2c;fill-opacity:1;fill-rule:nonzero;stroke:none;stroke-width:0.1"
       d="m 106.694,267.012 c 0,0 -0.466,-10.883 11.348,-18.302 0,0 4.801,9.902 -7.281,20.213 l -4.067,-1.911" /><path
       inkscape:connector-curvature="0"
       id="path334"
       style="fill:#a21a29;fill-opacity:1;fill-rule:nonzero;stroke:none;stroke-width:0.1"
       d="m 111.034,270.248 c 0,-1.804 -1.646,-3.268 -3.676,-3.268 -2.031,0 -3.677,1.464 -3.677,3.268 0,1.805 1.646,3.268 3.677,3.268 2.03,0 3.676,-1.463 3.676,-3.268" /><path
       inkscape:connector-curvature="0"
       id="path336"
       style="fill:#a21a29;fill-opacity:1;fill-rule:nonzero;stroke:none;stroke-width:0.1"
       d="m 107.45,267.811 -0.705,-0.342 c 0,0 -0.463,-11.154 11.254,-18.759 0,0 0.109,0.239 0.256,0.679 -10.889,7.353 -10.82,17.768 -10.805,18.422" /><path
       inkscape:connector-curvature="0"
       id="path338"
       style="fill:#d78930;fill-opacity:1;fill-rule:nonzero;stroke:none;stroke-width:0.1"
       d="m 135.261,265.303 c 0,0 7.732,5.505 18.06,21.341 0,0 28.916,94.224 -47.301,89.448 0,0 -71.7262,1.369 -43.1946,-91.445 0,0 8.5586,-17.771 24.0976,-23.233 0,0 -36.621,116.913 19.097,97.791 0,0 58.139,34.288 29.241,-93.902" /><path
       inkscape:connector-curvature="0"
       id="path340"
       style="fill:#a46322;fill-opacity:1;fill-rule:nonzero;stroke:none;stroke-width:0.1"
       d="m 107.329,376.077 c -0.463,-0.021 -0.912,-0.03 -1.383,-0.059 l 0.039,-10e-4 c 0.457,0.03 0.895,0.038 1.344,0.06" /><path
       inkscape:connector-curvature="0"
       id="path342"
       style="fill:#a46322;fill-opacity:1;fill-rule:nonzero;stroke:none;stroke-width:0.1"
       d="m 94.8098,361.232 c 3.2183,0.005 6.9022,-0.653 11.1272,-2.102 l 0.015,0.011 c -4.254,1.509 -7.9454,2.161 -11.1422,2.091" /><path
       inkscape:connector-curvature="0"
       id="path344"
       style="fill:#a46322;fill-opacity:1;fill-rule:nonzero;stroke:none;stroke-width:0.1"
       d="m 64.2961,284.571 c -26.6488,89.823 37.3199,91.436 41.4759,91.447 -3.666,0.004 -70.7865,-1.15 -43.031,-91.447 0,0 8.5567,-17.769 24.0981,-23.231 0,0 -0.0356,0.111 -0.0981,0.321 -14.4805,5.796 -22.4449,22.91 -22.4449,22.91" /><path
       inkscape:connector-curvature="0"
       id="path346"
       style="fill:#a46322;fill-opacity:1;fill-rule:nonzero;stroke:none;stroke-width:0.1"
       d="m 112.603,376.18 c 65.22,-1.198 39.035,-89.61 39.035,-89.61 -7.614,-12.092 -13.758,-18.156 -16.242,-20.35 -0.073,-0.332 -0.143,-0.658 -0.221,-0.991 0,0 7.732,5.505 18.062,21.341 0,0 27.178,88.572 -40.634,89.61" /><path
       inkscape:connector-curvature="0"
       id="path348"
       style="fill:#a46322;fill-opacity:1;fill-rule:nonzero;stroke:none;stroke-width:0.1"
       d="m 107.327,359.862 c 2.41,1.179 7.664,3.376 13.426,3.431 -5.744,0.069 -11.033,-2.219 -13.426,-3.431" /><path
       inkscape:connector-curvature="0"
       id="path350"
       style="fill:#8c6440;fill-opacity:1;fill-rule:nonzero;stroke:none;stroke-width:0.1"
       d="m 110.199,342.377 c -13.0123,10e-4 -24.6783,0.878 -33.4912,1.828 1.0235,4.313 2.5887,8.04 4.8375,10.904 l 54.7417,0.423 c 1.991,-2.79 3.689,-6.489 4.917,-11.324 -10.676,-1.335 -21.219,-1.831 -31.005,-1.831" /><path
       inkscape:connector-curvature="0"
       id="path352"
       style="fill:#8c5725;fill-opacity:1;fill-rule:nonzero;stroke:none;stroke-width:0.1"
       d="m 76.7078,344.205 c -7.3086,0.788 -12.6578,1.626 -15.1918,2.054 1.2051,3.25 2.6617,6.149 4.3,8.729 l 15.7293,0.121 c -2.2488,-2.864 -3.814,-6.591 -4.8375,-10.904 m 64.4962,0.003 c -1.228,4.835 -2.926,8.534 -4.917,11.324 l 13.867,0.108 c 1.581,-2.966 2.826,-6.135 3.791,-9.424 -4.239,-0.815 -8.503,-1.478 -12.741,-2.008 m 14.325,2.321 c -0.112,0.358 -0.227,0.719 -0.346,1.074 l 0.441,-1.055 c -0.031,-0.006 -0.064,-0.013 -0.095,-0.019" /><path
       inkscape:connector-curvature="0"
       id="path354"
       style="fill:#9f926c;fill-opacity:1;fill-rule:nonzero;stroke:none;stroke-width:0.1"
       d="m 59.9656,346.531 c -0.0593,0.012 -0.0894,0.017 -0.0894,0.017 l 0.6621,1.384 c -0.1961,-0.46 -0.3871,-0.926 -0.5727,-1.401 m 2.2891,4.986 1.6547,3.456 0.3976,0.003 c -0.7199,-1.095 -1.4058,-2.247 -2.0523,-3.459 m 89.5883,4.078 c -0.01,0.019 -0.021,0.038 -0.031,0.057 h 0.007 l 0.024,-0.057" /><path
       inkscape:connector-curvature="0"
       id="path356"
       style="fill:#8c5725;fill-opacity:1;fill-rule:nonzero;stroke:none;stroke-width:0.1"
       d="m 152.291,354.524 c -0.195,0.378 -0.396,0.755 -0.602,1.128 h 0.123 c 0.01,-0.019 0.021,-0.038 0.031,-0.057 l 0.448,-1.071" /><path
       inkscape:connector-curvature="0"
       id="path358"
       style="fill:#6d411e;fill-opacity:1;fill-rule:nonzero;stroke:none;stroke-width:0.1"
       d="m 61.516,346.259 c -0.8242,0.139 -1.3515,0.236 -1.5504,0.272 0.1856,0.475 0.3766,0.941 0.5727,1.401 l 1.7164,3.585 c 0.6465,1.212 1.3324,2.364 2.0523,3.459 l 1.509,0.012 c -1.6383,-2.58 -3.0949,-5.479 -4.3,-8.729" /><path
       inkscape:connector-curvature="0"
       id="path360"
       style="fill:#6d411e;fill-opacity:1;fill-rule:nonzero;stroke:none;stroke-width:0.1"
       d="m 153.945,346.216 c -0.965,3.289 -2.21,6.458 -3.791,9.424 l 1.535,0.012 c 0.206,-0.373 0.407,-0.75 0.602,-1.128 l 2.892,-6.921 c 0.119,-0.355 0.234,-0.716 0.346,-1.074 -0.529,-0.107 -1.055,-0.211 -1.584,-0.313" /><path
       inkscape:connector-curvature="0"
       id="path362"
       style="fill:#73652a;fill-opacity:1;fill-rule:nonzero;stroke:none;stroke-width:0.1"
       d="m 150.296,375.225 c -9.471,33.067 -35.195,32.04 -35.195,32.04 -39.9362,1.853 -45.4201,-28.504 -45.4201,-28.504 L 39.2063,365.782 c 0,0 -23.4165,-9.296 27.4214,-11.617 0,0 114.0783,-1.386 113.9043,5.259 0,0 6.819,0.504 -30.236,15.801" /><path
       inkscape:connector-curvature="0"
       id="path364"
       style="fill:#5c4e21;fill-opacity:1;fill-rule:nonzero;stroke:none;stroke-width:0.1"
       d="M 45.8484,363.32 76.327,376.3 c 0,0 5.4828,30.358 45.422,28.504 0,0 2.883,0.107 7.063,-0.975 -7.465,3.7 -13.711,3.459 -13.711,3.459 -39.9377,1.854 -45.4225,-28.504 -45.4225,-28.504 L 39.202,365.806 c 0,0 -13.5934,-5.399 2.4398,-8.995 -4.1914,3.175 4.2066,6.509 4.2066,6.509" /><path
       inkscape:connector-curvature="0"
       id="path366"
       style="fill:#351f17;fill-opacity:1;fill-rule:nonzero;stroke:none;stroke-width:0.1"
       d="m 69.6809,378.761 c 0,0 8.7031,-3.992 79.6311,-1.35 l 8.716,-5.541 c 0,0 -63.9858,-8.328 -99.5893,2.103 l 11.2422,4.788" /><path
       inkscape:connector-curvature="0"
       id="path368"
       style="fill:#5c4e21;fill-opacity:1;fill-rule:nonzero;stroke:none;stroke-width:0.1"
       d="M 179.315,361.864 C 166.411,356.6 66.7922,357.81 66.7922,357.81 c -21.5254,0.983 -29.7363,3.216 -32.0512,5.464 -2.7906,-2.935 -0.9156,-7.337 31.8985,-8.835 0,0 114.0765,-1.388 113.9065,5.257 0,0 1.703,0.127 -1.231,2.168" /></g></svg>